<svg width="278" height="278" viewBox="0 0 278 278" fill="none" xmlns="http://www.w3.org/2000/svg">
<rect width="278" height="278" fill="white"/>
<path d="M226.611 162.323C229.542 162.3 230.283 159.632 230.25 158.393C230.217 157.142 229.328 154.616 226.38 154.64C223.415 154.664 222.707 157.201 222.74 158.464C222.773 159.691 223.663 162.359 226.611 162.323ZM228.257 159.75C228.373 159.75 228.439 159.798 228.439 159.857L228.29 160.813C228.274 160.954 228.126 161.084 227.912 161.167C227.516 161.296 227.039 161.391 226.594 161.391C224.404 161.391 223.695 159.573 223.695 158.429C223.695 157.225 224.453 155.62 226.578 155.62C227.171 155.62 227.566 155.726 228.01 155.903C228.208 155.974 228.34 156.08 228.34 156.21L228.389 157.118C228.389 157.166 228.34 157.213 228.241 157.213C228.142 157.213 228.093 157.166 228.076 157.118C227.994 156.599 227.648 155.915 226.512 155.915C224.7 155.915 224.387 157.414 224.387 158.322C224.387 159.089 224.848 161.084 226.792 161.084C227.763 161.084 228.01 160.305 228.093 159.833C228.109 159.798 228.175 159.75 228.257 159.75ZM226.495 154.156C229.839 154.156 230.827 157.024 230.827 158.429C230.827 159.845 229.839 162.819 226.495 162.819C223.152 162.819 222.164 159.833 222.164 158.429C222.164 157.012 223.152 154.156 226.495 154.156Z" fill="black"/>
<path fill-rule="evenodd" clip-rule="evenodd" d="M226.609 162.15C228.012 162.139 228.879 161.499 229.398 160.718C229.922 159.928 230.093 158.988 230.077 158.398C230.061 157.803 229.84 156.895 229.27 156.143C228.706 155.399 227.797 154.802 226.381 154.813C224.957 154.825 224.092 155.435 223.579 156.185C223.06 156.944 222.898 157.856 222.913 158.459C222.929 159.043 223.151 159.982 223.722 160.765C224.288 161.541 225.197 162.167 226.609 162.15ZM222.74 158.464C222.707 157.201 223.415 154.664 226.38 154.64C229.328 154.616 230.217 157.142 230.25 158.393C230.283 159.632 229.542 162.3 226.611 162.323C223.663 162.359 222.773 159.691 222.74 158.464ZM228.612 159.87L228.462 160.836C228.447 160.96 228.377 161.062 228.292 161.139C228.207 161.218 228.096 161.281 227.974 161.328L227.966 161.331C227.557 161.466 227.061 161.564 226.594 161.564C225.444 161.564 224.668 161.083 224.185 160.443C223.708 159.811 223.522 159.031 223.522 158.429C223.522 157.794 223.721 157.051 224.206 156.462C224.696 155.869 225.467 155.446 226.578 155.446C227.196 155.446 227.613 155.558 228.072 155.741C228.182 155.78 228.285 155.834 228.365 155.905C228.445 155.977 228.511 156.077 228.513 156.204L228.563 157.118C228.563 157.31 228.378 157.386 228.241 157.386C228.078 157.386 227.957 157.301 227.913 157.176L227.908 157.161L227.905 157.146C227.868 156.909 227.772 156.647 227.568 156.445C227.367 156.246 227.043 156.088 226.512 156.088C225.664 156.088 225.189 156.434 224.917 156.869C224.637 157.318 224.56 157.882 224.56 158.322C224.56 158.681 224.67 159.339 225.009 159.901C225.343 160.455 225.893 160.911 226.792 160.911C227.223 160.911 227.477 160.742 227.638 160.53C227.806 160.31 227.883 160.03 227.922 159.803L227.926 159.781L227.936 159.76C227.965 159.698 228.018 159.654 228.065 159.627C228.117 159.598 228.183 159.577 228.258 159.577C228.336 159.577 228.416 159.593 228.483 159.634C228.552 159.677 228.612 159.754 228.612 159.857V159.87ZM228.34 156.21C228.34 156.08 228.208 155.974 228.01 155.903C227.566 155.726 227.171 155.62 226.578 155.62C224.453 155.62 223.695 157.225 223.695 158.429C223.695 159.573 224.404 161.391 226.594 161.391C227.039 161.391 227.516 161.296 227.912 161.167C228.126 161.084 228.274 160.954 228.29 160.813L228.439 159.857C228.439 159.798 228.373 159.75 228.257 159.75C228.175 159.75 228.109 159.798 228.093 159.833C228.01 160.305 227.763 161.084 226.792 161.084C224.848 161.084 224.387 159.089 224.387 158.322C224.387 157.414 224.7 155.915 226.512 155.915C227.648 155.915 227.994 156.599 228.076 157.118C228.093 157.166 228.142 157.213 228.241 157.213C228.34 157.213 228.389 157.166 228.389 157.118L228.34 156.21ZM230.054 155.662C230.744 156.588 231 157.694 231 158.429C231 159.168 230.744 160.303 230.055 161.256C229.361 162.218 228.227 162.992 226.495 162.992C224.763 162.992 223.63 162.215 222.935 161.252C222.247 160.297 221.991 159.163 221.991 158.429C221.991 157.688 222.247 156.582 222.937 155.658C223.633 154.725 224.766 153.983 226.495 153.983C228.225 153.983 229.358 154.728 230.054 155.662ZM230.827 158.429C230.827 157.024 229.839 154.156 226.495 154.156C223.152 154.156 222.164 157.012 222.164 158.429C222.164 159.833 223.152 162.819 226.495 162.819C229.839 162.819 230.827 159.845 230.827 158.429Z" fill="black"/>
<path fill-rule="evenodd" clip-rule="evenodd" d="M31.2564 189.87H31.2765L31.2965 189.87C35.3665 189.742 39.4122 189.615 43.3386 189.615C45.6033 189.615 84.6037 189.647 123.402 189.679L135.765 189.689C170.01 189.717 200.951 189.743 202.249 189.743C228.798 189.743 250 169.003 250 138.494C250 109.946 229.19 88.0111 203.991 88.0111C201.609 88.0111 162.142 88.043 122.836 88.0749L113.674 88.0823C77.6592 88.1116 44.2478 88.1387 42.6415 88.1387C38.4731 88.1387 34.9066 88.1386 31.2315 88.0135C30.2428 87.9156 29.4034 88.3617 28.8532 88.9922C28.3029 89.6228 28 90.4696 28 91.3337C28 92.8013 29.0218 94.4751 30.8208 94.5275C32 94.6727 32.8182 94.9899 33.4039 95.3986C33.9907 95.808 34.4212 96.3625 34.7415 97.1042C35.4186 98.6726 35.5514 100.924 35.5514 103.964V173.407C35.5514 176.742 35.3337 179.027 34.6373 180.543C34.3074 181.261 33.8795 181.781 33.3198 182.16C32.7497 182.547 31.9684 182.839 30.8617 182.98L30.8498 182.982C29.238 183.203 28 184.681 28 186.42C28 188.339 29.4402 189.87 31.2564 189.87Z" fill="black"/>
</svg>
