<svg width="8" height="8" viewBox="0 0 8 8" fill="none" xmlns="http://www.w3.org/2000/svg">
<path fill-rule="evenodd" clip-rule="evenodd" d="M4.70092 0.871094C4.96673 0.871094 5.21559 1.00409 5.36666 1.22688L5.71322 1.73799C5.86426 1.96077 6.11313 2.09377 6.37893 2.09377H6.75354C7.19486 2.09377 7.55263 2.4582 7.55263 2.90772V6.23637C7.55263 6.69152 7.19039 7.06048 6.74357 7.06048H1.08007C0.633228 7.06048 0.270996 6.69152 0.270996 6.23637V2.91789C0.270996 2.46274 0.633228 2.09377 1.08007 2.09377H1.46756C1.73869 2.09377 1.99179 1.95544 2.1417 1.72532L2.45818 1.23954C2.60809 1.00943 2.8612 0.871094 3.13231 0.871094H4.70092ZM5.73222 4.51191C5.73222 5.51729 4.91719 6.33232 3.91181 6.33232C2.90644 6.33232 2.09141 5.51729 2.09141 4.51191C2.09141 3.50654 2.90644 2.6915 3.91181 2.6915C4.91719 2.6915 5.73222 3.50654 5.73222 4.51191ZM3.91219 5.60344C4.51543 5.60344 5.00444 5.11443 5.00444 4.51119C5.00444 3.90796 4.51543 3.41895 3.91219 3.41895C3.30896 3.41895 2.81995 3.90796 2.81995 4.51119C2.81995 5.11443 3.30896 5.60344 3.91219 5.60344Z" fill="white"/>
</svg>
