<svg width="7" height="8" viewBox="0 0 7 8" fill="none" xmlns="http://www.w3.org/2000/svg">
<path fill-rule="evenodd" clip-rule="evenodd" d="M3.40603 0.506836C2.60173 0.506836 1.94971 1.15886 1.94971 1.96316V3.78357C1.94971 4.58788 2.60173 5.2399 3.40603 5.2399C4.21034 5.2399 4.86236 4.58788 4.86236 3.78357V1.96316C4.86236 1.15886 4.21034 0.506836 3.40603 0.506836ZM1.22096 3.78303C1.22096 3.58196 1.05796 3.41895 0.85688 3.41895C0.655805 3.41895 0.492798 3.58196 0.492798 3.78303C0.492798 5.26833 1.60458 6.49398 3.04137 6.67316V7.42384C3.04137 7.62491 3.20438 7.78793 3.40545 7.78793C3.60652 7.78793 3.76953 7.62491 3.76953 7.42384V6.67316C5.20632 6.49398 6.31811 5.26833 6.31811 3.78303C6.31811 3.58196 6.15509 3.41895 5.95402 3.41895C5.75295 3.41895 5.58994 3.58196 5.58994 3.78303C5.58994 4.9895 4.61192 5.96752 3.40545 5.96752C2.19898 5.96752 1.22096 4.9895 1.22096 3.78303Z" fill="white"/>
</svg>
