<svg width="8" height="8" viewBox="0 0 8 8" fill="none" xmlns="http://www.w3.org/2000/svg">
<path fill-rule="evenodd" clip-rule="evenodd" d="M4.50626 1.53607C4.50626 0.68234 3.37428 0.381777 2.95065 1.12302L2.18299 2.46619H1.59194C1.13207 2.46619 0.759277 2.83892 0.759277 3.29872V4.96378C0.759277 5.42356 1.13207 5.79631 1.59194 5.79631H2.18299L2.95065 7.13946C3.37428 7.88071 4.50626 7.58014 4.50626 6.72641V1.53607ZM6.04996 3.00474C5.88737 2.84217 5.62375 2.84217 5.46116 3.00474C5.29859 3.16733 5.29859 3.43095 5.46116 3.59354L5.99944 4.1318L5.46116 4.67006C5.29859 4.83265 5.29859 5.09627 5.46116 5.25886C5.62375 5.42143 5.88737 5.42143 6.04996 5.25886L6.58822 4.72058L7.12648 5.25886C7.28907 5.42143 7.55269 5.42143 7.71529 5.25886C7.87788 5.09627 7.87788 4.83265 7.71529 4.67006L7.177 4.1318L7.71529 3.59354C7.87788 3.43095 7.87788 3.16733 7.71529 3.00474C7.55269 2.84217 7.28907 2.84217 7.12648 3.00474L6.58822 3.54302L6.04996 3.00474Z" fill="black"/>
</svg>
