<svg width="9" height="6" viewBox="0 0 9 6" fill="none" xmlns="http://www.w3.org/2000/svg">
<path fill-rule="evenodd" clip-rule="evenodd" d="M8.42964 3.43976C8.42956 3.29233 8.40664 3.13432 8.37154 3.01186C8.32073 2.82646 8.2333 2.6595 8.12606 2.50143C7.31041 1.28532 6.14736 0.630848 4.47447 0.636836C3.37682 0.640749 2.73447 0.833678 2.08056 1.32351C1.71419 1.59795 1.38446 1.91982 1.04338 2.22414C0.892208 2.359 0.76975 2.54236 0.673071 2.71912C0.573697 2.92706 0.521453 3.1554 0.52159 3.3905C0.522071 4.25074 1.21983 4.9485 2.08007 4.94898L2.15496 4.94725C2.94897 4.91009 3.58789 4.27806 3.63401 3.48526L3.63844 2.85867C3.63839 2.74212 3.72218 2.6425 3.837 2.62266C4.07589 2.58138 4.81235 2.57345 5.02737 2.60675C5.14425 2.62484 5.23055 2.72548 5.2306 2.84375C5.22855 3.0418 5.22438 3.23995 5.22449 3.43801C5.22498 4.32308 5.94287 5.04097 6.82794 5.04146C7.71303 5.04193 8.43013 4.32483 8.42964 3.43976Z" fill="white"/>
</svg>
